<?xml version="1.0" standalone="no"?>
<!DOCTYPE svg PUBLIC "-//W3C//DTD SVG 1.1//EN" "http://www.w3.org/Graphics/SVG/1.1/DTD/svg11.dtd" >
<svg xmlns="http://www.w3.org/2000/svg">
<metadata>
Created by FontForge 20120731 at Mon Sep  5 11:08:01 2016
 By admin
</metadata>
<defs>
<font id="iconfont" horiz-adv-x="1024" >
  <font-face 
    font-family="iconfont"
    font-weight="500"
    font-stretch="normal"
    units-per-em="1024"
    panose-1="2 0 6 3 0 0 0 0 0 0"
    ascent="896"
    descent="-128"
    x-height="792"
    bbox="0 -212 1536 896.16"
    underline-thickness="50"
    underline-position="-100"
    unicode-range="U+0078-E7B7"
  />
<missing-glyph horiz-adv-x="374" 
d="M34 0v682h272v-682h-272zM68 34h204v614h-204v-614z" />
    <glyph glyph-name=".notdef" horiz-adv-x="374" 
d="M34 0v682h272v-682h-272zM68 34h204v614h-204v-614z" />
    <glyph glyph-name=".null" horiz-adv-x="0" 
 />
    <glyph glyph-name="nonmarkingreturn" horiz-adv-x="341" 
 />
    <glyph glyph-name="x" unicode="x" horiz-adv-x="1001" 
d="M281 543q-27 -1 -53 -1h-83q-18 0 -36.5 -6t-32.5 -18.5t-23 -32t-9 -45.5v-76h912v41q0 16 -0.5 30t-0.5 18q0 13 -5 29t-17 29.5t-31.5 22.5t-49.5 9h-133v-97h-438v97zM955 310v-52q0 -23 0.5 -52t0.5 -58t-10.5 -47.5t-26 -30t-33 -16t-31.5 -4.5q-14 -1 -29.5 -0.5
t-29.5 0.5h-32l-45 128h-439l-44 -128h-29h-34q-20 0 -45 1q-25 0 -41 9.5t-25.5 23t-13.5 29.5t-4 30v167h911zM163 247q-12 0 -21 -8.5t-9 -21.5t9 -21.5t21 -8.5q13 0 22 8.5t9 21.5t-9 21.5t-22 8.5zM316 123q-8 -26 -14 -48q-5 -19 -10.5 -37t-7.5 -25t-3 -15t1 -14.5
t9.5 -10.5t21.5 -4h37h67h81h80h64h36q23 0 34 12t2 38q-5 13 -9.5 30.5t-9.5 34.5q-5 19 -11 39h-368zM336 498v228q0 11 2.5 23t10 21.5t20.5 15.5t34 6h188q31 0 51.5 -14.5t20.5 -52.5v-227h-327z" />
    <glyph glyph-name="uni3434" unicode="&#x3434;" horiz-adv-x="1000" 
d="M915 193h85v214h-85q-64 0 -77.5 32.5t31.5 78.5l60 60l-151 151l-60 -60q-46 -45 -78.5 -31.5t-32.5 77.5v1v84h-214v-85q0 -65 -32.5 -78t-78.5 32l-60 60l-151 -151l60 -60q45 -46 31.5 -78.5t-77.5 -32.5h-85v-214h85q64 0 77.5 -32.5t-31.5 -78.5l-60 -60l151 -151
l60 60q46 45 78.5 32t32.5 -78v-85h214v84v1q0 64 32.5 77.5t78.5 -31.5l60 -60l151 151l-60 60q-45 46 -31.5 78.5t77.5 32.5zM500 112q-78 0 -133 55t-55 133t55 133t133 55t133 -55t55 -133t-55 -133t-133 -55z" />
    <glyph glyph-name="uniE600" unicode="&#xe600;" 
d="M958 589q-1 -4 -3 -6l-596 -595q-4 -7 -10 -9l-295 -83h-2v-1h-1h-1q-4 -1 -6 -1q-3 0 -6 1h-1h-1q-2 1 -5 3q-2 2 -2.5 2t-1.5 2q-2 3 -3 6h-1v1q-1 4 -0.5 6.5t0.5 5.5l1 1v1v1v1l83 295q2 6 9 11l587 586l1 1q1 1 1 2l7 6l1 1q50 48 118 48q71 0 121.5 -50.5
t50.5 -121.5q0 -65 -45 -114zM878 565l-77 78l-505 -505h1l50 -103zM76 -53l59 17l-42 43zM105 53l76 -76l131 36l-55 115l-115 55zM266 168h1l504 504l-77 77l-531 -530zM830 832q-56 0 -95 -43l-1 1l-11 -11l184 -184l12 11h-1q43 39 43 96q0 54 -38.5 92t-92.5 38z" />
    <glyph glyph-name="uniE601" unicode="&#xe601;" 
d="M958 313v-278q0 -18 -12.5 -30.5t-29.5 -12.5h-811q-18 0 -30.5 12.5t-12.5 30.5v278q28 4 46 25t18 49t-18 48.5t-46 24.5v279q0 17 12.5 29.5t30.5 12.5h811q17 0 29.5 -12.5t12.5 -29.5v-279q-27 -4 -45.5 -24.5t-18.5 -48.5t18.5 -49t45.5 -25zM916 283
q-29 15 -46.5 42.5t-17.5 61t17.5 61.5t46.5 43v226q0 9 -6.5 15.5t-15.5 6.5h-768q-9 0 -15 -6.5t-6 -15.5v-226q29 -15 46.5 -43t17.5 -61.5t-17.5 -61t-46.5 -42.5v-227q0 -9 6 -15t15 -6h768q9 0 15.5 6t6.5 15v227zM532 205h-43v86h-107v42h107v43h-107v43h56l-56 108
l35 20l65 -128h60l62 128l34 -21l-51 -107h51v-43h-106v-43h106v-42h-106v-86z" />
    <glyph glyph-name="uniE602" unicode="&#xe602;" 
d="M655 248q-16 8 -27 12t-13.5 4.5t-3.5 1.5t-4 6q10 45 36.5 89t52.5 77.5t31 49.5q7 19 4 32t-10 19.5t-13 18t-5 26.5q10 114 0 144q-9 27 -32.5 48t-49.5 31t-51.5 16.5t-41.5 7.5l-17 1q-66 0 -122.5 -31t-69.5 -69q-10 -30 0 -145q1 -15 -5 -26.5t-13 -18t-10 -19.5
t4 -32q5 -16 31 -50t52.5 -78t36.5 -89l-3 -5q0 -1 -1 -2t-4 -1.5t-7 -1.5t-13 -5t-20 -9q-8 -4 -36 -16.5t-48.5 -23t-47.5 -26.5t-49 -36t-36 -43q-48 -76 -48 -168h264h121h24h25h120h263q0 10 -1 26.5t-13 61t-34 79.5q-14 23 -36 43t-48.5 36t-47 26.5t-48.5 22.5
t-36 16zM155 -15q10 54 36 94q12 20 31.5 37t46 32t43 23t44.5 21q23 10 32 15q20 9 30 12q28 6 41 35l7 14l-4 16q-7 35 -25 71.5t-31 55.5t-35 49q-28 37 -31 46q-1 4 -1 6q0 1 2 4q29 35 26 75l-1 13q-9 90 -2 112q7 21 50.5 44.5t94.5 23.5q15 0 35 -4t44 -11.5
t43.5 -22.5t26.5 -34q7 -22 -2 -112l-1 -12q-3 -40 25 -75l2 -2l1 -1q0 -3 -2 -7q-2 -8 -30 -45q-22 -30 -35 -49.5t-30.5 -55.5t-25.5 -71l-2 -16l6 -15q13 -27 40 -34q10 -2 30 -12q9 -4 32 -15q27 -12 44 -20t43.5 -23t45.5 -32t31 -36q26 -41 36 -94h-711z" />
    <glyph glyph-name="uniE603" unicode="&#xe603;" 
d="M489 245l-175 -87q-15 -7 -24.5 3t-4.5 25l87 176q3 13 10 21l244 243h-381q-24 0 -40.5 -16.5t-16.5 -39.5v-453q0 -23 16.5 -39.5t40.5 -16.5h452q24 0 40.5 16.5t16.5 39.5v382l-244 -244q-7 -8 -21 -10zM737 539l17 17v14q0 23 -16.5 39.5t-40.5 16.5h-15l-15 -15z
M324 211q-4 -7 1.5 -12.5t12.5 -2.5l108 66l-57 57zM411 355q12 -13 71 -71l227 227l-71 70zM823 625l-71 71q-12 11 -28.5 11t-28.5 -11l-69 -70h56l27 27q6 6 14.5 6t13.5 -6l43 -43q6 -6 6 -14t-6 -14l-26 -26v-57l69 69q11 12 11 28.5t-11 28.5z" />
    <glyph glyph-name="uniE604" unicode="&#xe604;" 
d="M625 -53q-62 19 -125.5 58t-105.5 76t-82 80.5t-52 60t-18 25.5q-5 11 -12.5 29.5t-24.5 73.5t-26 108.5t-8 124.5t19 129q9 31 25.5 54.5t32 35t32.5 18.5t24.5 8.5t9.5 1.5q12 1 29.5 2t49.5 -3t38 -17q-2 -35 3.5 -70.5t14.5 -60.5t18 -45t16 -30l7 -10
q-132 -65 -150 -73q-6 -38 6.5 -88.5t28.5 -81.5l16 -32l1 1q2 -5 7 -13t21 -30t32.5 -40.5t41 -38.5t48.5 -30l150 74q1 -4 5 -11t17.5 -28t30 -40.5t45 -44t60.5 -43.5q16 -23 -48 -97l-2 -3q-2 -2 -7 -6.5t-21.5 -14t-35 -15t-49 -5t-62.5 10.5z" />
    <glyph glyph-name="uniE605" unicode="&#xe605;" 
d="M900 461q-1 0 -3 0.5t-3 0.5l-54 -302h-657l-54 302h-2q-2 -1 -3 -1q-25 0 -42.5 17.5t-17.5 42.5t17.5 42.5t42 17.5t42 -17.5t17.5 -42.5q0 -24 -16 -41l166 -139l149 330h60l149 -330l166 139q-17 17 -17 41q0 25 17.5 42.5t42 17.5t42 -17.5t17.5 -42.5t-17.5 -42.5
t-41.5 -17.5zM452 731.5q0 24.5 17.5 42.5t42 18t42 -18t17.5 -42.5t-17.5 -42.5t-42 -18t-42 18t-17.5 42.5zM840 40q0 -25 -17.5 -42.5t-42.5 -17.5h-537q-25 0 -42.5 17.5t-17.5 42.5v30h657v-30z" />
    <glyph glyph-name="uniE606" unicode="&#xe606;" 
d="M841 317q46 -10 67.5 -32t17 -44t-27.5 -40.5t-57 -22.5q37 -15 47 -45.5t-17.5 -51.5t-85.5 -14q36 -5 42 -36q5 -30 -17 -43q-11 -6 -25 -4h-471q-1 1 -6 0t-13.5 1.5t-16.5 6.5t-14 15t-6 26v354q0 3 -0.5 11t0 11.5t2.5 10t8 12t16 12.5q116 72 141 123
q24 46 38.5 103.5t16.5 90.5q1 12 8 19t13 7l7 1q4 1 10.5 0.5t22.5 -7t27.5 -19t19 -42t3.5 -70.5q-5 -46 -17.5 -75.5t-38.5 -63.5v-28q32 1 104 1q47 0 124.5 -0.5t104.5 -0.5q75 -4 89 -50q13 -41 -30 -78q-33 -29 -86 -38zM175 -16h-56q-23 0 -39 16.5t-16 39.5v332
q0 23 16 39.5t39 16.5h56q23 0 39 -16.5t16 -39.5v-332q0 -23 -16 -39.5t-39 -16.5z" />
    <glyph glyph-name="uniE607" unicode="&#xe607;" 
d="M422 327h-239q-25 0 -42.5 -17.5t-17.5 -42.5v-269q0 -24 17.5 -41.5t42.5 -17.5h239q25 0 42.5 17.5t17.5 41.5v269q0 25 -17.5 42.5t-42.5 17.5zM900 595h-299q-25 0 -42.5 -17.5t-17.5 -41.5v-120q0 -24 17.5 -41.5t42.5 -17.5h299q24 0 41.5 17.5t17.5 41.5v120
q0 24 -17.5 41.5t-41.5 17.5zM840 327h-239q-25 0 -42.5 -17.5t-17.5 -42.5v-269q0 -24 17.5 -41.5t42.5 -17.5h239q25 0 42.5 17.5t17.5 41.5v269q0 25 -17.5 42.5t-42.5 17.5zM422 595h-299q-24 0 -41.5 -17.5t-17.5 -41.5v-120q0 -24 17.5 -41.5t41.5 -17.5h299
q25 0 42.5 17.5t17.5 41.5v120q0 24 -17.5 41.5t-42.5 17.5zM880 725q-9 50 -30 70q-16 16 -61 27.5t-77 5.5q-53 -10 -98.5 -48t-63 -83.5t-0.5 -75.5q35 -4 59 -6.5t62 -4t64 0.5t55.5 9t48 20t30.5 34.5t11 50.5zM614 689q16 28 45.5 51t63.5 29q4 1 11 1q20 0 43.5 -6
t29.5 -11l3 -2q6 -6 11 -31q-1 -16 -9 -25q-26 -25 -116 -25q-38 0 -89 5q2 7 7 14zM473 622q17 31 -1 76t-63 83.5t-99 48.5q-32 5 -77 -6.5t-61 -27.5q-21 -20 -30 -70q-1 -29 11 -50.5t30.5 -34t48 -19.5t56 -9.5t64 -1t62 4t59.5 6.5zM213 752l2 2q7 5 30 11.5t43 6.5
q7 0 11 -1q35 -6 64.5 -29.5t45.5 -50.5q4 -8 7 -15q-52 -5 -89 -5q-91 0 -117 26q-8 8 -8 24q4 25 11 31z" />
    <glyph glyph-name="uniE608" unicode="&#xe608;" 
d="M840 -63h-657q-49 0 -84 35t-35 84v657q0 49 35 84t84 35h433q6 0 10.5 -4.5t4.5 -10.5v-30q0 -6 -4.5 -10.5t-10.5 -4.5h-403q-37 0 -63 -26t-26 -63v-597q0 -37 26 -63.5t63 -26.5h597q37 0 63.5 26.5t26.5 63.5v403q0 6 4 10.5t11 4.5h29q7 0 11 -4.5t4 -10.5v-433
q0 -49 -35 -84t-84 -35zM893 647l-125 117l38 38q22 22 53.5 22.5t53.5 -20.5l16 -15q22 -21 22.5 -51.5t-21.5 -52.5zM302 295l124 -117l-183 -62zM862 617l-406 -409l-124 118l406 408z" />
    <glyph glyph-name="uniE609" unicode="&#xe609;" 
d="M959 272v-187q0 -31 -21.5 -52.5t-52.5 -21.5h-228q-6 16 -20 26.5t-32 10.5t-32 -10.5t-20 -26.5h-414q-31 0 -53 21.5t-22 52.5v187q46 0 79 32.5t33 79.5q0 46 -33 79t-79 33v186q0 31 22 53t53 22h414q-4 -11 -4 -19q0 -23 16.5 -39.5t39.5 -16.5t39.5 16.5
t16.5 39.5q0 8 -4 19h228q31 0 52.5 -22t21.5 -53v-186q-46 0 -79 -33t-33 -79.5t33 -79t79 -32.5zM605 608q-23 0 -39.5 -16.5t-16.5 -40t16.5 -39.5t39.5 -16t39.5 16t16.5 39.5t-16.5 40t-39.5 16.5zM605 421q-23 0 -39.5 -16.5t-16.5 -39.5t16.5 -39.5t39.5 -16.5
t39.5 16.5t16.5 39.5t-16.5 39.5t-39.5 16.5zM605 234q-23 0 -39.5 -16t-16.5 -39.5t16.5 -39.5t39.5 -16t39.5 16t16.5 39.5t-16.5 39.5t-39.5 16z" />
    <glyph glyph-name="uniE60A" unicode="&#xe60a;" 
d="M478 647q-2 3 -5.5 8.5t-15 20t-24 27.5t-32 27t-39.5 21q-23 12 -78.5 11.5t-88.5 -17.5q-18 -9 -39 -26t-44 -44.5t-36.5 -68t-11.5 -84.5q3 -28 9 -53q5 -17 11.5 -33.5t13 -30t19 -31t19.5 -28.5t25.5 -30.5t26.5 -28.5t32 -32t33 -31.5t38.5 -35.5t40.5 -37
q71 -66 114.5 -105.5t51.5 -45.5l8 -6q218 178 296 257l9 9q26 28 41.5 45.5t39 49.5t40 68.5t27.5 78.5q2 48 -11 92t-34 73.5t-40.5 48t-36.5 26.5q-25 25 -93 32t-103 -12q-21 -11 -61.5 -40t-71.5 -52z" />
    <glyph glyph-name="uniE60B" unicode="&#xe60b;" 
d="M759 356l-443 -408q-11 -11 -26.5 -11t-26 10.5t-10.5 26.5t11 27l415 383l-415 384q-11 11 -11 26.5t10.5 26.5t26 11t26.5 -11l443 -408q11 -12 10 -29q1 -17 -10 -28z" />
    <glyph glyph-name="uniE60C" unicode="&#xe60c;" 
d="M920 -63h-262h-121h-24h-24h-121h-264q0 9 1 26t13 62t34 80q14 23 36 43t49 36t47.5 26.5t48.5 23t36 16.5q16 8 27 11.5t13.5 4t3.5 1.5t4 7q-10 44 -36.5 88.5t-52.5 78.5t-31 49q-7 19 -4 32.5t10 19.5t13 18t5 27q-10 114 0 144q12 38 69 69.5t123 31.5q7 0 17.5 -1
t40 -7.5t53.5 -16.5t48 -31t33 -49q10 -30 0 -143q-1 -15 5 -27t12.5 -18t10 -19.5t-3.5 -31.5q-5 -16 -31 -50t-52.5 -78t-36.5 -88l3 -5q0 -1 1.5 -2t4 -1.5t6.5 -1.5t13 -4.5t20 -9.5q8 -4 35.5 -16t48 -22.5t47.5 -26.5t48.5 -36t35.5 -43q23 -35 35 -79.5t13 -61.5
t0 -26z" />
    <glyph glyph-name="uniE60D" unicode="&#xe60d;" 
d="M704 832h-384q-53 0 -90.5 -37.5t-37.5 -90.5v-640q0 -53 37.5 -90t90.5 -37h384q53 0 90.5 37t37.5 90v640q0 53 -37.5 90.5t-90.5 37.5zM511.5 0q-26.5 0 -45 19t-18.5 45.5t18.5 45t45 18.5t45.5 -18.5t19 -45t-19 -45.5t-45.5 -19zM768 256q0 -26 -19 -45t-45 -19
h-384q-27 0 -45.5 19t-18.5 45v448q0 27 18.5 45.5t45.5 18.5h384q26 0 45 -18.5t19 -45.5v-448z" />
    <glyph glyph-name="uniE60E" unicode="&#xe60e;" 
d="M959 310v-278q0 -17 -12.5 -29.5t-29.5 -12.5h-810q-18 0 -30.5 12.5t-12.5 29.5v278q27 4 45.5 25t18.5 49t-18.5 48.5t-45.5 24.5v279q0 17 12.5 29.5t30.5 12.5h810q17 0 29.5 -12.5t12.5 -29.5v-279q-27 -4 -45.5 -24.5t-18.5 -48.5t18.5 -49t45.5 -25zM640 331h-107
v42h107v43h-52l52 107l-35 21l-62 -128h-59l-66 128l-34 -20l55 -108h-55v-43h106v-42h-106v-43h106v-85h43v85h107v43z" />
    <glyph glyph-name="uniE60F" unicode="&#xe60f;" 
d="M767 509q-2 -29 -25 -61.5t-48 -57.5t-27 -31q-6 -14 -3.5 -30.5t15.5 -68.5q3 -12 8 -28.5t6.5 -23t4 -18.5t3 -23t2 -27.5t1.5 -41.5q3 -71 -17.5 -113.5t-57.5 -47.5q-32 9 -45.5 54t-17.5 120q-2 37 1 76t12 99t12 86q13 106 13 460q64 -10 100 -37q11 -8 19 -17.5
t15 -23t10.5 -22t10 -26.5t8.5 -23q5 -12 7 -26.5t1.5 -34.5t-1.5 -34.5t-3.5 -41t-3.5 -37.5zM499 509q-7 -8 -25.5 -23.5t-32.5 -27.5l-15 -12q3 -45 12 -124q1 -4 1 -12q19 -159 11 -261q-2 -31 -9 -53.5t-15.5 -33.5t-17 -17t-13.5 -7l-6 -1q-2 0 -5.5 0.5t-13.5 7
t-18 17.5t-15.5 33.5t-10.5 53.5q-2 31 -2 64t0.5 53.5t4 58t4.5 47t6 50.5l13 124q-59 45 -76 63q-14 14 -25 37q-5 16 -2 130.5t14 143.5l51 12v-224h38v224h74v-224h36v224l49 -12q11 -29 14 -143.5t-2 -130.5q-11 -23 -24 -37z" />
    <glyph glyph-name="uniE610" unicode="&#xe610;" 
d="M1024 896l-640 -704l-384 128zM1024 896v-896l-541 163zM384 156l-19 6l147 -290l95 218l-131 38l20 -192z" />
    <glyph glyph-name="uniE611" unicode="&#xe611;" 
d="M866 -63h-706q-5 0 -9 4t-4 9v703q0 6 4 10t9 4h109v151q0 6 4 10t9 4h462q5 0 9 -4t4 -10v-151h109q5 0 9 -4t4 -10v-703q0 -5 -4 -9t-9 -4zM472 -22h82v69h-82v-69zM717 791h-407v-124h407v124zM839 625h-652v-647h245v83q0 11 8 19t19 8h108q12 0 19.5 -8t7.5 -19v-83
h245v647zM662 584h109q5 0 9 -4t4 -10v-14q0 -5 -4 -9t-9 -4h-109q-5 0 -9 4t-4 9v14q0 6 4 10t9 4zM662 501h109q5 0 9 -4t4 -9v-14q0 -6 -4 -10t-9 -4h-109q-5 0 -9 4t-4 10v14q0 5 4 9t9 4zM662 419h109q5 0 9 -4t4 -10v-14q0 -6 -4 -10t-9 -4h-109q-5 0 -9 4t-4 10v14
q0 6 4 10t9 4zM662 336h109q5 0 9 -4t4 -10v-14q0 -5 -4 -9t-9 -4h-109q-5 0 -9 4t-4 9v14q0 6 4 10t9 4zM662 253h109q5 0 9 -4t4 -9v-14q0 -6 -4 -10t-9 -4h-109q-5 0 -9 4t-4 10v14q0 5 4 9t9 4zM662 171h109q5 0 9 -4t4 -10v-14q0 -6 -4 -10t-9 -4h-109q-5 0 -9 4t-4 10
v14q0 6 4 10t9 4zM567 129h-108q-6 0 -10 4t-4 10v14q0 6 4 10t10 4h108q6 0 10 -4t4 -10v-14q0 -6 -4 -10t-10 -4zM567 212h-108q-6 0 -10 4t-4 10v14q0 5 4 9t10 4h108q6 0 10 -4t4 -9v-14q0 -6 -4 -10t-10 -4zM567 295h-108q-6 0 -10 4t-4 9v14q0 6 4 10t10 4h108
q6 0 10 -4t4 -10v-14q0 -5 -4 -9t-10 -4zM567 377h-108q-6 0 -10 4t-4 10v14q0 6 4 10t10 4h108q6 0 10 -4t4 -10v-14q0 -6 -4 -10t-10 -4zM567 460h-108q-6 0 -10 4t-4 10v14q0 5 4 9t10 4h108q6 0 10 -4t4 -9v-14q0 -6 -4 -10t-10 -4zM567 543h-108q-6 0 -10 4t-4 9v14
q0 6 4 10t10 4h108q6 0 10 -4t4 -10v-14q0 -5 -4 -9t-10 -4zM364 129h-109q-5 0 -9 4t-4 10v14q0 6 4 10t9 4h109q5 0 9 -4t4 -10v-14q0 -6 -4 -10t-9 -4zM364 212h-109q-5 0 -9 4t-4 10v14q0 5 4 9t9 4h109q5 0 9 -4t4 -9v-14q0 -6 -4 -10t-9 -4zM364 295h-109q-5 0 -9 4
t-4 9v14q0 6 4 10t9 4h109q5 0 9 -4t4 -10v-14q0 -5 -4 -9t-9 -4zM364 377h-109q-5 0 -9 4t-4 10v14q0 6 4 10t9 4h109q5 0 9 -4t4 -10v-14q0 -6 -4 -10t-9 -4zM364 460h-109q-5 0 -9 4t-4 10v14q0 5 4 9t9 4h109q5 0 9 -4t4 -9v-14q0 -6 -4 -10t-9 -4zM364 543h-109
q-5 0 -9 4t-4 9v14q0 6 4 10t9 4h109q5 0 9 -4t4 -10v-14q0 -5 -4 -9t-9 -4zM377 749h109q6 0 9.5 -4t3.5 -9v-14q0 -6 -3.5 -10t-9.5 -4h-109q-5 0 -9 4t-4 10v14q0 5 4 9t9 4zM540 749h109q5 0 9 -4t4 -9v-14q0 -6 -4 -10t-9 -4h-109q-5 0 -9 4t-4 10v14q0 5 4 9t9 4z" />
    <glyph glyph-name="uniE612" unicode="&#xe612;" 
d="M752 375q-13 -16 -78.5 -66t-74.5 -65q-2 -46 -24.5 -72.5t-63.5 -15.5q-11 0 -23.5 12t-19.5 34t-6.5 47.5t17.5 57t50 57.5q20 18 49.5 41.5t40 33t23.5 27t23 41.5q3 8 3 22.5t-4 32t-16 34.5t-29 31.5t-45 23.5t-63 9q-30 0 -58.5 -18t-47.5 -44t-31.5 -50.5
t-15.5 -40.5q-1 -6 -3 -20.5t-3.5 -22t-7 -19t-14 -16.5t-24 -8.5t-36.5 -1.5q-20 0 -42.5 34.5t-23.5 75.5q-4 76 55 162t142 123q24 10 63.5 15.5t97 -2.5t103.5 -35q11 -6 26.5 -16.5t40 -34t43.5 -52t32 -71.5t11 -89q0 -32 -19.5 -80t-46.5 -74zM522 90
q32 0 54.5 -22.5t22.5 -54.5t-22.5 -54t-54.5 -22t-54.5 22t-22.5 54t22.5 54.5t54.5 22.5z" />
    <glyph glyph-name="uniE613" unicode="&#xe613;" 
d="M959 88l-281 286q-10 10 -24 10t-24 -10l-21 -19l-48 49l81 83q63 -26 110 -15.5t99 61.5q43 43 54 102.5t-13 108.5l-116 -113q-9 -9 -21.5 -9t-21.5 9l-49 49q-9 9 -9 21t9 21l111 110q-47 16 -100 2.5t-93 -53.5q-32 -30 -48.5 -58t-18 -54.5t4 -48t18.5 -50.5
q1 -1 -18.5 -23t-39.5 -43l-20 -21h-5l-254 256q11 33 -8 52l-41 39l-78 -77l41 -40q2 0 4 -1.5t8.5 -4t13 -4t14.5 -1.5t14 3l248 -251l5 -8l-325 -296l-42 -42q-28 -28 -28 -67.5t28 -67t67 -27.5t67 28l42 42q191 246 274 346l45 -46l-25 -28q-9 -9 -9 -23.5t9 -23.5
l280 -282q10 -10 24 -10t23 10l87 81q9 10 9 24t-9 24zM184.5 44.5q-8.5 -8.5 -21 -8.5t-21 8.5t-8.5 21t8.5 21t21 8.5t21 -8.5t8.5 -21t-8.5 -21zM862.5 1q-10.5 -10 -20.5 0l-250 263q-10 10 0 20t20 0l251 -263q10 -10 -0.5 -20zM914 53q-10 -10 -20 0l-250 263
q-10 10 0 20t20 0l250 -263q11 -10 0 -20z" />
    <glyph glyph-name="uniE614" unicode="&#xe614;" 
d="M861 320q0 3 0.5 8.5t-0.5 22t-3.5 32.5t-9.5 38.5t-16.5 42.5t-26.5 40.5t-39 36.5t-54 28t-70 17q-152 14 -237 -103q-20 -28 -29 -52q-2 2 -7 5.5t-20 10.5t-31 10t-39.5 -0.5t-47.5 -15.5q-20 -12 -34 -29t-19.5 -32t-7.5 -29t-1 -22l1 -8q-7 -1 -18 -4t-39.5 -16.5
t-50.5 -32t-40 -53.5t-18 -78q3 -112 118 -146q34 -10 62 -11h278v162h-88l147 145l147 -145h-88v-162h252q4 0 10 0.5t23.5 3.5t33.5 8t37 16t37 26t29 39t18 54q3 45 -12.5 81.5t-39.5 56.5t-48 33.5t-42 17.5z" />
    <glyph glyph-name="uniE615" unicode="&#xe615;" 
d="M206 750q-63 0 -87.5 12t-25.5 33q1 13 29 23t53 10h586q33 0 60 -17q-16 31 -45.5 50t-63.5 19h-586q-51 0 -88 -39t-37 -93v-615v-11v-46q12 -46 35 -82t46 -56t50.5 -34t45 -18.5t34.5 -7.5q18 -6 37 -6h586q51 0 88 39t37 93v126h-424q-42 1 -71 15t-44.5 39.5
t-22.5 56t-7 70.5q0 181 148 181h421v127q0 53 -37 92t-88 39h-629zM530 440q-34 0 -60 -38t-26 -91t26 -91t60 -38h443q15 0 25.5 12.5t9.5 26.5v179q1 14 -10 27t-25 13h-443zM514 311q0 32 23.5 56.5t54 24.5t53.5 -24.5t23 -56.5t-22.5 -55.5t-53 -23.5t-54.5 23.5
t-24 55.5z" />
    <glyph glyph-name="uniE616" unicode="&#xe616;" 
d="M800 563q-11 16 -25 32.5t-20.5 26t-6.5 18.5q0 7 1 20t-1 18q-2 9 4.5 47t13.5 73l8 34h-39q-39 -133 -52 -141q-24 -9 -26 -38q-2 -5 -19.5 -15t-43 -29.5t-41.5 -45.5q-31 -51 -26 -55h-27l-5 14q-6 14 -21 38q-17 26 -42.5 45.5t-43.5 30t-20 15.5q-2 29 -26 38
q-6 4 -19.5 39.5t-23.5 69.5l-10 34h-40q1 -6 3 -15t7 -33.5t9 -44.5t6.5 -38.5t1.5 -23.5q-3 -6 -1.5 -19t1.5 -20q-1 -9 -7.5 -19t-21 -26.5t-24.5 -32.5q-14 -21 -14 -47t14 -44q59 -121 185 -65q5 2 24.5 18t37.5 32l17 15h53l17 -14t36.5 -29t24.5 -17q123 -55 182 64
q13 18 13 43.5t-13 46.5zM718 282q-96 -32 -151 -41t-111 -1.5t-151 36.5q-4 2 -10 4q-11 3 -13 0.5t-4 -21.5q-4 -37 -10 -70q-3 -24 12 -38q4 -4 96.5 -99t99.5 -102q17 -14 38 -13.5t35 13.5q13 14 61 64.5t88 93.5t44 46q15 15 12 38q-6 34 -10 72q-2 20 -4 22.5
t-13 -1.5z" />
    <glyph glyph-name="uniE617" unicode="&#xe617;" 
d="M87 70l218 126l77 118q10 -29 38 -43l34 -16l-77 -118q-6 -10 -16 -15l-227 -132q-11 -6 -24 -6q-26 0 -40 23q-9 17 -4 35.5t21 27.5zM761 569q-45 0 -76.5 31.5t-31.5 76.5t31.5 76.5t76.5 31.5t76.5 -31.5t31.5 -76.5t-31.5 -76.5t-76.5 -31.5zM709 464q28 25 26 62
l50 -33l94 102q13 14 32 15t33 -12t15 -32t-12 -33l-120 -132q-14 -16 -34 -16q-15 0 -26 8l-78 53zM613 211l-179 88q-23 11 -26 35.5t15 40.5l159 142l-95 63l-139 -40q-18 -5 -35 4t-22 27.5t4 35.5t28 22l159 46q21 6 39 -6l163 -108q19 -13 20.5 -35.5t-15.5 -38.5
l-153 -135l164 -80q18 -9 24 -28.5t-5 -37.5l-124 -200q-13 -22 -39 -22q-13 0 -24 7q-17 10 -21.5 28.5t6.5 35.5z" />
    <glyph glyph-name="uniE618" unicode="&#xe618;" 
d="M579 596l15 10q-48 21 -103.5 17.5t-103.5 -32t-77.5 -75t-34.5 -99.5l15 9q7 47 34 87.5t70 66t92.5 29.5t92.5 -13zM227 469l20 -14l-7 24l20 14l-24 2l-10 24l-9 -22l-25 -1l19 -17l-6 -22zM300 541l3 25l24 7l-23 10l-1 26l-17 -17l-24 8l12 -23l-14 -20l26 4z
M466 98l-18 17l2 -24l-21 -14l23 -5l6 -25l13 21l23 -2l-16 20l10 22zM564 659l18 -18l-3 25l22 13l-23 6l-6 25l-13 -22l-23 2l16 -20l-10 -22zM353 610l10 22l25 -1l-18 17l8 24l-21 -11l-20 16l4 -25l-20 -14l25 -5zM456 656l23 -10l-11 22l15 20l-23 -3l-13 22l-5 -25
l-23 -6l21 -13l-1 -25zM573 110l-24 11l11 -23l-16 -21l24 3l14 -22l5 26l24 6l-22 14l2 24zM315 713.5q-89 -52.5 -138.5 -141t-48.5 -190t53.5 -190.5t141 -138.5t190 -48.5t190 53.5t138 141t49 190t-53 190t-141 138t-190 49t-190.5 -53zM697.5 66.5
q-86.5 -51.5 -185.5 -52t-185 47.5t-137.5 135t-52 185.5t47.5 185t135 137.5t185.5 52t185 -47.5t137.5 -135t52 -185.5t-47.5 -185t-135 -137.5zM281.5 769.5q-104.5 -61.5 -162.5 -165t-57 -222.5t62.5 -223.5t165.5 -162.5t223 -57t223 63t162 165.5t57 222.5t-62.5 223
t-165 162t-222.5 57t-223.5 -62.5zM719.5 30q-96.5 -57 -207 -58t-206.5 53t-153 150.5t-58 206.5t53 206t150.5 153.5t206.5 58t206 -53t153.5 -150t58 -207t-53 -206.5t-150 -153zM794 306l-20 13l6 -24l-20 -14l25 -2l9 -23l10 21l25 1l-19 17l6 23zM670 154l-10 -22
l-25 1l18 -17l-8 -24l21 10l20 -15l-4 25l20 13l-25 6zM444 167l-16 -9q48 -21 104 -18t104.5 32t77.5 75.5t34 99.5l-15 -9q-7 -47 -34 -87.5t-70 -66t-92.5 -30t-92.5 12.5zM728 227l-2 -25l-24 -7l22 -10l1 -25l17 17l24 -8l-12 22l13 19l-25 -3zM439 255q-5 14 -12 31
h-3q-14 -4 -22 -6l6 -15q3 -8 5 -11q8 -21 -14 -31l-78 -47q-19 -12 -29 8l-26 43l124 74l-50 84l-151 -89l12 -20l130 77l27 -46l-103 -61l-14 24l-22 -13l54 -92q18 -30 51 -11l93 56q32 17 22 45zM497 370l-73 -43l10 -18l54 32l1 -45l-33 6l-4 -19q9 -2 25 -6
q34 -7 50 -11l5 22l-23 4l-1 60zM420 337q6 38 6 77q12 -5 35 -15q11 -5 17 -7l4 23q-23 9 -58 20l-1 10l-20 -10q5 -46 -2 -83q2 -2 4 -3q10 -7 15 -12zM585 346q27 -4 59 -12l5 23q-6 1 -18 2q-32 4 -50 7q-5 13 -13 27l-17 31l-18 -11l17 -31q15 -26 13 -44t-24 -48
q10 -4 22 -9q25 43 24 65zM481 419l53 -90l17 11l-42 72l54 32l42 -71l18 11l-52 88l-42 -24l-7 23l43 26l-10 17l-104 -61l11 -17l40 23l8 -23zM471 372q-13 7 -32 15l-9 -16q5 -2 12 -6q14 -8 18 -10zM787 488q1 44 -28 111l-11 19l-80 -47l11 -19l7 4l-4 -4
q46 -60 82 -78q-4 -31 -18 -58q8 -3 22 -10q14 33 17 58q23 -8 56 -12q0 12 1 25q-30 1 -55 11zM764 500q-27 17 -64 64l40 24q23 -51 24 -88zM720 451l-60 101l9 5l-10 18l-89 -53l10 -17l11 6l66 -111l-14 -10l14 -18q30 26 57 47l19 -33l19 11l-22 36l14 11q-5 6 -11 18z
M703 438l-30 -24l-16 27l33 19zM680 476l-33 -19l-14 24l33 20zM656 517l-32 -20l-15 25l33 19z" />
    <glyph glyph-name="uniE619" unicode="&#xe619;" 
d="M276 416l15 9q7 48 33.5 88.5t69.5 66t92 30t93 -12.5l15 9q-48 21 -103.5 17.5t-103.5 -32t-77 -75t-34 -100.5zM206 456l22 12l20 -14l-7 24l20 14l-24 2l-11 24l-8 -22h-25l19 -17zM286 561l15 -21l2 26l24 7l-22 10l-2 26l-16 -18l-25 8l12 -23l-14 -19zM489 109
l-22 -11l-17 18l2 -24l-21 -14l23 -6l6 -24l12 21l24 -2l-16 20zM541 648l23 11l18 -17l-3 24l21 14l-22 5l-6 25l-13 -22l-23 2l15 -20zM346 633l7 -23l10 22l25 -2l-18 17l8 25l-21 -11l-20 15l4 -25l-20 -13zM439 638l17 18l22 -10l-10 22l15 20l-23 -3l-14 22l-5 -25
l-22 -6l21 -13zM592 130l-18 -19l-23 11l11 -23l-16 -21l24 3l14 -22l5 26l23 6l-22 14zM836 580.5q-53 88.5 -141.5 138t-189.5 48t-190 -54t-138 -141t-48 -190t54 -190t141.5 -137.5t189.5 -48t190 54t138 141.5t48 189.5t-54 189.5zM699.5 67.5
q-86.5 -51.5 -185.5 -52.5t-185 47t-137.5 134.5t-53 185t46.5 185t134.5 138t185.5 52.5t185 -47t137.5 -134.5t53 -185t-46.5 -185t-134.5 -138zM892 614q-62 104 -165.5 162t-222.5 56.5t-223 -63.5t-161.5 -165.5t-56 -222.5t63.5 -223t165.5 -161.5t222.5 -56.5t223 63
t161.5 166t56 222.5t-63.5 222.5zM720.5 31.5q-96.5 -57.5 -206 -58.5t-206 52.5t-154 149.5t-58.5 206t52.5 206t149.5 153.5t206 59t206.5 -52t153.5 -150t58.5 -206.5t-52 -206t-150 -153.5zM817 319l-22 -12l-21 14l7 -24l-20 -15l24 -2l10 -23l10 22l25 1l-19 17z
M672 155l-11 -22l-24 1l17 -17l-7 -24l21 11l20 -16l-4 25l19 14l-25 5zM749 349l-15 -9q-7 -48 -34 -88.5t-70 -66t-92.5 -30t-92.5 12.5l-15 -9q48 -22 103.5 -18.5t104 32.5t77.5 75.5t34 100.5zM743 208l-14 20l-2 -25l-24 -7l22 -10l2 -25l16 17l24 -7l-12 22l13 19z
M441 256q-5 14 -12 31q-1 0 -3 -1q-14 -4 -22 -5q2 -6 6 -15q3 -8 5 -12q8 -20 -13 -30l-79 -47q-18 -12 -29 7l-26 44l124 73l-50 85l-150 -90l11 -20l130 77l27 -45l-103 -61l-14 23l-22 -13l54 -91q19 -30 51 -11l94 56q32 17 21 45zM431 372q5 -3 12 -6q14 -8 19 -11
l10 18q-12 7 -31 15zM650 359q-5 0 -17 1q-32 5 -51 7q-4 13 -13 28l-17 30l-18 -11l18 -31q15 -26 12 -44q-2 -17 -24 -48q11 -4 23 -8q25 42 23 64q27 -3 60 -12zM553 341l-43 72l55 32l42 -70l17 10l-52 88l-41 -24l-8 23l43 26l-10 17l-103 -61l10 -18l40 24l8 -23
l-29 -17l54 -90zM407 349q10 -6 15 -11q6 38 6 76q11 -4 34 -14q11 -5 18 -7l4 23q-23 9 -58 20l-1 9l-21 -10q5 -45 -1 -83q2 -1 4 -3zM454 284q9 -2 25 -6q34 -6 50 -10l5 21l-23 4l-1 60l-11 18l-73 -43l10 -18l54 32v-45l-32 6zM837 478q-1 5 -7 20q-1 4 -2 5
q-15 -3 -24 -5q6 -11 9 -21q5 -10 -8 -18l-12 -7q-14 -9 -21 4l-17 30l56 33l-11 18l-174 -103l11 -19l48 29q24 -33 -24 -76q9 -3 23 -11q54 54 22 100l28 16l20 -35q15 -24 40 -9l27 16q23 12 16 33zM583 515l24 -40l20 13l-13 21l126 75l13 -21l21 12l-24 40l-68 -41
q-11 9 -21 17l-22 -17l19 -14zM767 545l-131 -78l-11 19l131 77z" />
    <glyph glyph-name="uniE61A" unicode="&#xe61a;" horiz-adv-x="1064" 
d="M-49 -72zM1041 -72zM45 -41zM403 301q0 55 37.5 92.5t92.5 37.5t92.5 -37.5t37.5 -92.5t-37.5 -93t-92.5 -38t-92 38q-38 38 -38 93zM219 216q11 -39 33 -78l-86 -106l97 -97l106 86q37 -21 79 -34l14 -134h140l15 134q36 11 79 34l105 -86l98 97l-86 106q22 41 33 78
l134 15v140l-134 14q-10 32 -33 79l86 105l-98 99l-105 -87q-49 25 -79 34l-15 134h-140l-14 -134q-37 -11 -79 -34l-106 87l-97 -99l86 -105q-23 -45 -33 -79l-135 -14v-140zM1021 -41z" />
    <glyph glyph-name="uniE61B" unicode="&#xe61b;" 
d="M289 561l15 -20l2 25l24 7l-22 10l-2 26l-16 -17l-25 8l12 -23l-14 -20zM443 638l17 18l23 -11l-11 22l16 21l-24 -3l-13 22l-5 -25l-23 -6l22 -14zM207 457l23 11l20 -14l-7 24l20 15l-24 2l-10 24l-9 -22l-26 -1l19 -17zM278 416l15 9q7 48 34 88.5t70.5 66t93 29
t92.5 -13.5l16 9q-48 22 -104 19t-104.5 -31.5t-78 -75t-34.5 -100.5zM546 647l22 11l18 -18l-2 25l21 13l-22 6l-6 25l-13 -22l-24 3l16 -21zM752 345l-15 -9q-8 -48 -35 -88.5t-70.5 -66t-93 -29.5t-92.5 13l-16 -9q48 -21 104 -18t105 31.5t78.5 75t34.5 100.5zM350 633
l6 -23l11 22l24 -2l-17 17l8 25l-22 -11l-20 16l4 -25l-19 -14zM745 204l-14 20l-2 -25l-24 -7l22 -10l1 -26l17 18l24 -8l-12 22l14 19zM820 315l-22 -12l-20 13l6 -23l-20 -15l24 -2l10 -24l10 22l25 1l-19 17zM898.5 611q-61.5 105 -165.5 163.5t-223 58t-224 -62
t-164 -165.5t-58.5 -223t62 -224t165.5 -163.5t223 -58t224 62t164 165t58.5 223t-62 224.5zM722 27q-97 -57 -207.5 -57.5t-207 53.5t-153.5 151.5t-57.5 208t54 206.5t151.5 153t207.5 57.5t207 -54t153.5 -151.5t57.5 -207.5t-54 -206.5t-151.5 -153zM841.5 577.5
q-52.5 89.5 -141 139.5t-190.5 49.5t-191 -53t-139 -141t-50 -190t52.5 -191t141 -139.5t190.5 -49.5t191 52.5t139 141t50 190.5t-52.5 191zM700 63q-87 -51 -186 -51.5t-185.5 48.5t-137.5 136t-51.5 186.5t48.5 185.5t136 137t186 51.5t185.5 -48t137.5 -136t51.5 -186.5
t-48.5 -185.5t-136 -137.5zM490 106l-22 -11l-18 18l2 -24l-21 -14l23 -6l5 -25l13 22l24 -3l-16 21zM673 151l-10 -22l-25 1l17 -17l-7 -24l21 10l20 -15l-4 25l20 13l-25 6zM593 126l-18 -18l-23 10l10 -22l-16 -21l25 2l13 -22l6 26l23 6l-22 14zM440 248q-5 14 -13 32
q0 -1 -3 -1q-14 -4 -23 -6q2 -5 7 -15q3 -8 5 -12q8 -21 -14 -32l-83 -48q-19 -13 -30 8l-27 45l130 76l-52 89l-157 -93l12 -21l135 80l28 -48l-107 -63l-15 25l-23 -14l56 -96q19 -32 53 -11l98 57q34 18 23 48zM459 398l76 45l39 -65q11 -16 -6 -24q-17 -10 -28 -16
q5 -4 13 -13q2 -3 4 -5q20 11 30 18q31 18 11 49l-40 69l28 17l-11 19l-28 -17l-20 34l-22 -13l19 -34l-76 -45zM485 229q2 19 9 44q32 -13 65 8q60 33 100 57q-2 13 -4 24q-33 -21 -102 -61q-29 -17 -60 -4l-45 77l-43 -26l12 -21l23 14l33 -57q-7 -28 -11 -39zM476 379
q6 -2 16 -5q26 -10 38 -15l10 23q-22 8 -54 18zM394 430l-12 -20l6 -3q30 -14 42 -22l13 23q-27 13 -49 22zM696 353q6 23 12 52l-23 1q-3 -19 -12 -49q5 0 23 -4zM605 553l-20 -12l12 -20l-13 -8l11 -17l12 7l51 -87l-15 -8l10 -18l106 62l-11 17l-15 -9l-51 87l13 8
l-10 17l-13 -7l-12 21l-20 -12l12 -21l-35 -20zM713 449l-35 -21l-11 18l36 21zM682 501l11 -18l-35 -21l-11 19zM662 536l11 -19l-35 -20l-11 18zM851 475l-94 160l-72 -42l48 -81q36 -58 31 -91q-17 3 -39 9l-7 -20l18 -6q14 -4 21 -7l7 18v-3q-1 -3 -1 -4q2 0 6 -1
q12 -1 19 -2q5 40 -14 78l34 20l20 -33q6 -10 -6 -15q-7 -5 -18 -10q2 -3 8 -8q6 -7 8 -9q4 2 12 8q9 5 12 7q19 12 7 32zM717 585l32 19l19 -32l-32 -19zM764 502q-4 10 -10 20l-7 13l31 18l19 -32z" />
    <glyph glyph-name="uniE61C" unicode="&#xe61c;" 
d="M456 -63q10 55 10 132v115h-173q-70 0 -123 -9v88q53 -9 123 -9h173v56l-46 70h-127q-70 0 -123 -10v89q53 -10 123 -10h82l-183 280q-45 71 -70 103h126q14 -40 57 -108l207 -333l204 333q47 75 57 108h127q-27 -34 -73 -103l-181 -280h82q71 0 124 10v-89
q-53 10 -124 10h-126l-47 -71v-55h173q69 0 123 9v-88q-54 9 -123 9h-173v-115q0 -76 10 -132h-109z" />
    <glyph glyph-name="uniE61D" unicode="&#xe61d;" 
d="M903 193v-89q0 -12 -8 -20t-20 -8h-84q-11 0 -19 8t-8 20v42h-504v-42q0 -12 -8.5 -20t-19.5 -8h-84q-12 0 -20 8t-8 20v89q-56 52 -56 129v14q0 51 27 93t71 64v18h1q5 77 61 130t134 53h308q77 0 133 -53t62 -130v-18q45 -22 71.5 -64t26.5 -93v-14q0 -77 -56 -129z
M330 272h364v28h-364v-28zM763 511q-3 24 -20.5 40t-42 16t-42 -16t-20.5 -40h125zM330 329h364v28h-364v-28zM162 328.5q0 -23.5 16.5 -40t39.5 -16.5t39.5 16.5t16.5 40t-16.5 40t-39.5 16.5t-39.5 -16.5t-16.5 -40zM652 652h-280q-62 0 -109 -40.5t-57 -100.5h404
q3 36 29 60.5t61.5 24.5t61.5 -24.5t29 -60.5h26q-10 60 -57 100.5t-108 40.5zM805.5 385q-23.5 0 -39.5 -16.5t-16 -40t16 -40t39.5 -16.5t39.5 16.5t16 40t-16 40t-39.5 16.5z" />
    <glyph glyph-name="uniE61E" unicode="&#xe61e;" 
d="M512 238v0v0q-48 -1 -82.5 -35t-34.5 -82.5t34.5 -83t82.5 -35.5v0v0q48 1 82.5 35.5t34.5 83t-34.5 82.5t-82.5 35zM521 417q-2 0 -5 -0.5t-4 -0.5t-4 0.5t-5 0.5q-135 0 -228 -96q-11 -11 -10.5 -25.5t10.5 -24.5q11 -10 25 -10q15 0 25 11q73 74 178 74h9v0v0h9
q105 0 178 -74q10 -11 25 -11q14 0 25 10q10 10 10.5 24.5t-10.5 25.5q-93 96 -228 96zM847 470q-68 59 -152 90.5t-174 31.5h-5h-4h-4h-5q-90 0 -174 -31.5t-152 -90.5q-11 -9 -12 -23.5t9 -25.5q10 -12 26 -12q14 0 24 9q119 104 279 104h5h4v0v0h4h5q160 0 279 -104
q10 -9 24 -9q16 0 26 12q10 11 9 25.5t-12 23.5zM945 618q-90 72 -199.5 111t-224.5 39q-2 0 -5 -0.5t-4 -0.5t-4 0.5t-5 0.5q-115 0 -224.5 -39t-199.5 -111q-12 -9 -13.5 -23.5t8.5 -25.5q10 -13 27 -13q13 0 22 8q81 64 179 99t201 35q2 0 5 -0.5t4 -0.5v0v0q1 0 4 0.5
t5 0.5q103 0 201 -35t178 -99q10 -8 23 -8q17 0 27 13q9 11 7.5 25.5t-12.5 23.5z" />
    <glyph glyph-name="uniE61F" unicode="&#xe61f;" 
d="M340 390q-65 13 -108 51.5t-43 74.5v44h117q0 -96 34 -170zM835 516q0 -36 -43 -74.5t-108 -51.5q34 74 34 170h117v-44zM894 575q0 18 -13 31t-31 13h-132v44q0 30 -21.5 52t-52.5 22h-264q-31 0 -52.5 -22t-21.5 -52v-44h-132q-18 0 -31 -13t-13 -31v-59
q0 -68 72.5 -126.5t176.5 -63.5q19 -25 43 -44q31 -28 31 -74q0 -25 -14 -42t-45 -17q-34 0 -61 -21t-27 -53v-29q0 -6 4.5 -10.5t10.5 -4.5h382q6 0 10.5 4.5t4.5 10.5v29q0 32 -27 53t-61 21q-31 0 -45 17t-14 42q0 46 31 74q24 19 43 44q104 5 176.5 63.5t72.5 126.5v59z
" />
    <glyph glyph-name="uniE620" unicode="&#xe620;" 
d="M511.5 -63q-91.5 0 -174 35.5t-142.5 95.5t-95.5 143t-35.5 174t35.5 174t95.5 143t142.5 95.5t174 35.5t174 -35.5t142.5 -95.5t95.5 -143t35.5 -174t-35.5 -174t-95.5 -143t-142.5 -95.5t-174 -35.5zM511.5 764q-102.5 0 -190 -51t-138 -138t-50.5 -190t50.5 -190.5
t138 -138t190 -50.5t190 50.5t138 138t50.5 190.5t-50.5 190t-138 138t-190 51zM498 259l-29 -29q-6 -6 -14.5 -6t-14.5 6l-29 29l-115 115q-6 6 -6 14.5t6 14.5l29 28q6 6 14.5 6t14.5 -6l100 -100l217 215q6 6 14.5 6t13.5 -6l29 -28q6 -6 6 -14.5t-6 -14.5z" />
    <glyph glyph-name="uniE621" unicode="&#xe621;" 
d="M602 35q-67 -5 -126.5 0t-100.5 13l-41 9l-112 -66h-22l22 132q-7 4 -18.5 11.5t-41 33.5t-50.5 54.5t-36 73.5t-10 92q6 93 38.5 165t81 115t109 70t123.5 34t124 3t111 -19t83 -37q32 -19 58 -37t58.5 -49.5t54.5 -64.5t37.5 -80.5t14.5 -99.5q-31 -197 -227 -302
q-52 -28 -130 -51zM872 593l-468 -178l-156 89l111 -223q2 -1 534 291z" />
    <glyph glyph-name="uniE622" unicode="&#xe622;" 
d="M894 533l-15 20q-15 19 -17 43l-2 24q-2 23 -17.5 44t-36.5 31l-22 11q-9 4 -20 13.5t-16 16.5l-14 21q-12 19 -36 31t-47 11l-25 -1q-25 -1 -46 11l-22 12q-21 11 -47.5 11t-46.5 -11l-22 -12q-22 -12 -47 -11l-25 1q-23 1 -46.5 -11t-36.5 -31l-13 -21q-6 -7 -17 -16.5
t-19 -13.5l-23 -11q-21 -10 -36 -31t-17 -44l-2 -24q-3 -24 -17 -43l-15 -20q-14 -18 -17.5 -43.5t5.5 -46.5l10 -22q9 -23 6 -46l-4 -24q-4 -23 5.5 -47t27.5 -38l20 -16q19 -15 27 -38l8 -23q2 -6 6 -12l-90 -148h130l62 -91l78 130q32 -12 61 -4l24 7q24 6 48 0l24 -7
q27 -7 57 3l78 -129l63 91h129l-88 145q5 8 8 15l8 23q8 23 27 38l19 16q18 14 27.5 38t6.5 47l-4 24q-4 23 6 46l9 22q9 21 6 46.5t-17 43.5zM511 126q-89 0 -164.5 42.5t-119 115.5t-43.5 158.5t43.5 158.5t119 115.5t164.5 42.5t164 -42.5t119 -115.5t44 -158.5
t-44 -158.5t-119 -115.5t-164 -42.5zM511 725q-121 0 -207 -82.5t-86 -200t86 -200t207 -82.5t206.5 82.5t85.5 200t-85.5 200t-206.5 82.5zM616 304l-101 51l-102 -49l20 108l-80 78l113 16l52 98l50 -99l112 -18l-82 -76z" />
    <glyph glyph-name="uniE623" unicode="&#xe623;" 
d="M839 312q47 -10 68.5 -33.5t17 -46.5t-27.5 -42.5t-58 -23.5q22 -10 35.5 -27t13.5 -34t-9.5 -32t-34.5 -22t-60 -2q35 -5 42 -38q5 -31 -17 -46q-11 -6 -25 -4h-471q0 1 -5.5 0t-14 2t-16.5 7t-13.5 15t-5.5 27v373q0 4 -1 12t-0.5 12t3 11t8.5 13t16 12q115 76 140 130
q25 48 39 109t16 95q1 13 8 20.5t13 8.5l7 1q4 0 10.5 -0.5t22.5 -7.5t27.5 -20t19 -44t3.5 -75q-5 -48 -17.5 -79t-37.5 -67v-29q30 1 103 1q47 0 124 -0.5t105 -0.5q74 -5 88 -52q14 -43 -29 -83q-33 -31 -87 -40zM175 -39h-56q-23 0 -39 17t-16 42v350q0 24 16 41.5
t39 17.5h56q23 0 39 -17.5t16 -41.5v-350q0 -25 -16 -42t-39 -17z" />
    <glyph glyph-name="uniE624" unicode="&#xe624;" 
d="M543 274v277h276q26 0 44 -18t18 -44v-215h-338zM720 636q-29 -27 -70.5 -44.5t-77.5 -17.5q-38 0 -58 19l-4 4l-4 -4q-21 -19 -58 -19t-78.5 17.5t-70.5 44.5q-43 40 -49.5 90t26.5 81q28 25 71 25q62 0 113 -47q31 -29 50 -70q19 41 50 70q50 47 112 47q44 0 71 -25
q34 -31 27 -81t-50 -90zM417 740q-32 30 -70 30q-18 0 -28 -9q-8 -7 -8 -20q0 -31 31 -59q21 -20 51 -32.5t55 -12.5q7 0 15 2q6 10 -7 43t-39 58zM701 761q-10 9 -29 9q-37 0 -70 -30q-26 -25 -38 -58t-7 -44h2q2 -1 5 -1h8q24 0 54.5 12.5t51.5 32.5q30 28 30 59
q0 13 -7 20zM481 274h-338v215q0 26 18 44t44 18h276v-277zM481 -63h-276q-26 0 -44 18t-18 43v215h338v-276zM881 -2q0 -25 -18 -43t-44 -18h-276v276h338v-215z" />
    <glyph glyph-name="uniE625" unicode="&#xe625;" 
d="M510 896q-104 0 -198.5 -40.5t-162.5 -109t-108.5 -163.5t-40.5 -199t40.5 -199t108.5 -163.5t162.5 -109t198.5 -40.5t198.5 40.5t162.5 109t108.5 163.5t40.5 199t-40.5 199t-108.5 163.5t-162.5 109t-198.5 40.5zM765 361h-232v-233h-46v233h-232v46h232v233h46v-233
h232v-46z" />
    <glyph glyph-name="uniE62A" unicode="&#xe62a;" horiz-adv-x="1025" 
d="M943 281q-51 184 -218 279q-1 1 -40 20l1 1l3 3l3 3q41 38 55 75q4 10 10 34q10 58 -26 87q-50 42 -115 15q-5 -2 -8 1q-39 37 -95 37t-96 -36q-4 -3 -8 -1q-32 14 -68 7q-35 -7 -57 -33t-17 -62q9 -65 53 -112q1 -2 19 -20l-5 -2q-114 -51 -185.5 -153t-80.5 -226
q-6 -74 11 -137q14 -54 58.5 -89t102.5 -35h273h274q86 1 136 72q22 30 29 79q17 101 -9 193zM646 193q-1 -11 -8 -18t-13 -8l-6 -1h-77v-21q0 -6 -2.5 -11.5t-5.5 -7.5l-2 -2q-5 -5 -11.5 -6.5t-10.5 -0.5h-4q-10 3 -15.5 9.5t-6.5 12.5l-1 5v22h-77q-7 0 -13 3.5t-8 7.5
l-2 3q-3 4 -4 9t-1 8l1 3q1 7 4.5 12t7 7.5t7.5 3.5t6 1l2 1h77v31h-77q-13 1 -22 12l-1 1q1 0 1 -1v0q-1 1 -1 2q-3 4 -4 9.5t-1 8.5l1 3q3 11 9.5 17t12.5 6l6 1h76v23l-91 90q-3 4 -5 8.5t-2 7.5l-1 2q0 10 4.5 17t8.5 9l5 3q9 3 16 2t11 -4l4 -3l84 -83l80 80
q4 3 9.5 4.5t8.5 1.5h3q10 -2 16.5 -8t8.5 -11l1 -6q1 -6 -0.5 -12t-3.5 -9l-3 -3l-95 -94v-15h76h3q7 -1 13 -5t8 -8l2 -4q3 -7 2.5 -13t-1.5 -10l-2 -4q-4 -7 -10.5 -10.5t-10.5 -3.5l-4 -1h-76v-31l77 -1l12 -3q8 -5 12 -12t4 -11z" />
    <glyph glyph-name="uniE62B" unicode="&#xe62b;" 
d="M756 -29h6q11 2 17.5 12t4.5 22q-11 62 -34.5 111t-55 81t-63 52t-67.5 33q54 33 85.5 87.5t31.5 119.5q0 100 -71 170t-171 70t-171 -70.5t-71 -171.5q0 -64 31 -118.5t84 -86.5q-56 -20 -98.5 -56.5t-64 -72t-35 -73t-16.5 -55.5t-3 -23q-1 -12 6 -21t18 -10h637z
M928 56q-11 63 -35 113.5t-56 83.5t-64.5 53.5t-69.5 33.5q55 33 87.5 89t32.5 122q0 103 -73 174.5t-175 71.5q-64 0 -120 -31q53 -6 101 -30q9 1 19 1q77 0 132 -55t55 -132q0 -78 -55 -132q-14 -69 -58 -123q33 -8 63 -23t63 -42.5t58 -75t36 -109.5q5 -24 31 -24h6
q11 3 18 13t4 22z" />
    <glyph glyph-name="uniE62C" unicode="&#xe62c;" 
d="M722 325zM911 648h-748q-2 1 -5.5 2t-13.5 4.5t-17.5 8.5t-13.5 13t-6 18l815 80v68q0 2 -0.5 4t-3.5 8.5t-7.5 11t-12 11.5t-18 9.5t-25.5 4.5t-35 -3l-724 -126q-4 0 -10 -1.5t-22 -9.5t-27.5 -20.5t-21.5 -37t-10 -56.5v-651q0 -47 33 -80.5t80 -33.5h793
q47 0 80 33.5t33 80.5v548q0 47 -33.5 80.5t-79.5 33.5zM843 180q-33 0 -56.5 23.5t-23.5 56.5t23.5 56.5t56.5 23.5t56 -23.5t23 -56.5t-23 -56.5t-56 -23.5zM843 180z" />
    <glyph glyph-name="uniE637" unicode="&#xe637;" 
d="M361 123l-153 151l-96 -257zM852 604l-158 163l-458 -452l165 -170zM982 729q13 17 9.5 35t-14.5 33l-11 14q-26 34 -74 69q-21 16 -42.5 16t-31.5 -8l-11 -8l-81 -81l165 -165q70 71 91 95zM982 729zM32 -47h919v-81h-919v81zM32 -47z" />
    <glyph glyph-name="uniE641" unicode="&#xe641;" horiz-adv-x="1536" 
d="M498 -128v121q0 3 1 8t9.5 20.5t23 31t46 36.5t74.5 40q22 9 47 30.5t44.5 40.5t60.5 39t97 30q-48 49 -106 188q-4 11 -7.5 23t-5 20t-2 24t-1 21.5t0 26t0.5 25.5q0 11 -2 44t-1.5 57.5t5.5 40.5q25 86 85 121t148.5 35t148.5 -35t85 -120q5 -16 5.5 -41t-1.5 -58
t-2 -44q0 -6 0.5 -25.5t0 -26t-1 -21.5t-2 -23.5t-5 -20.5t-7.5 -23q-57 -138 -106 -188q56 -9 97.5 -29t61.5 -39.5t45 -40.5t48 -31q43 -18 74.5 -39t46 -36.5t23 -31.5t9.5 -21.5t1 -7.5v-121h-1038zM607 298q-35 -84 -63 -121q-45 -26 -76 -55.5t-43.5 -55.5t-17 -42.5
t-4.5 -29.5v-1v-121h-403v88q0 2 1 5.5t7 15t16.5 23t33.5 26.5t54 29q13 5 57.5 29.5t92.5 43.5t101 29q-35 35 -77 136q-3 8 -5.5 17t-3.5 15t-1.5 17.5t-1 15.5t0 19t0.5 18q0 8 -1.5 32.5t-1 42t3.5 29.5q34 114 170.5 114t169.5 -114q4 -11 4 -29t-1 -42.5t-1 -32.5
v-19v-18q0 -4 -0.5 -15.5t-2 -17.5t-3.5 -14.5t-5 -16.5z" />
    <glyph glyph-name="uniE655" unicode="&#xe655;" horiz-adv-x="1634" 
d="M1357 -22q0 -22 -8 -41t-22 -34t-33 -23t-42 -8h-863q-23 0 -43 8t-35.5 23t-24.5 34t-9 41v583q0 45 31.5 75.5t76.5 30.5h863q46 0 77.5 -30.5t31.5 -75.5v-159h-270q-46 0 -77.5 -30t-31.5 -75q2 -30 14 -54q9 -19 31 -35.5t64 -16.5h270v-213v0zM1195 721h-540
q64 33 121 63q49 25 99 52q49 25 76 39q42 23 74.5 21t55.5 -11q26 -13 45 -34zM1033 297q0 22 15.5 37.5t38 15.5t38 -15.5t15.5 -37.5t-15.5 -38t-38 -16t-38 16t-15.5 38v0zM1033 297z" />
    <glyph glyph-name="uniE658" unicode="&#xe658;" 
d="M1022 347h-1q-1 15 -12 26t-26 12h-8h-15v1q-19 0 -34.5 9.5t-22.5 25.5q-4 8 -6 17q-7 20 -16 38q-5 7 -7 14v1q-4 10 -4 21q0 26 19 45v0l13 13v1h1q11 12 11.5 28t-9.5 28v1q-15 18 -31 34q-17 17 -35 32q-11 9 -26 9.5t-26 -8.5l-10 -9l-8 -9l-1 1q-14 -14 -33 -18
t-36 3q-4 2 -9 5q-22 11 -45 19l-8 2l-1 1q-11 4 -21 13q-15 16 -18 38q-1 8 0 16v11q0 15 -10 27t-25 15h-7q-23 2 -43 2q-21 0 -43 -2h-7q-15 -3 -25 -15t-10 -27v-19q0 -21 -11.5 -37t-30.5 -23q-2 -1 -5 -2q-25 -9 -49 -20q-1 -1 -4 -2q-13 -6 -27 -6q-26 0 -45 19v-1
l-13 14q-11 11 -26.5 12.5t-28.5 -7.5l-5 -5h-1q-16 -14 -31 -29t-29 -31q-2 -3 -5 -6q-9 -13 -7.5 -28.5t12.5 -26.5l14 -13q14 -14 17.5 -34t-4.5 -38q-2 -2 -3 -4q-12 -24 -20 -49l-2 -6q-5 -12 -14 -22q-19 -19 -46 -19h-19q-15 0 -27 -10t-15 -25v-7q-2 -21 -2 -43v0
v-1q0 -21 2 -42v-7q3 -15 15 -25t27 -10h19q21 0 37 -11.5t23 -29.5q1 -3 2 -5q8 -25 20 -50q1 -1 2 -4q6 -13 6 -27q0 -26 -19 -45h1l-13 -13h-1v-1q-11 -11 -12.5 -26t7.5 -27q3 -5 5 -7q14 -16 29 -31t31 -29q2 -1 7 -5q24 -17 48 1l10 9l9 9q14 14 34 17.5t38 -4.5
q1 -1 3 -2h1q24 -12 50 -21q1 -1 4 -1q13 -5 23 -15q19 -19 19 -45v-19q0 -17 11 -29t27 -14q23 -2 47 -2t47 2q16 2 27 14t11 29v19q0 19 10 34.5t27 23.5q7 3 14 4q21 8 41 17q6 4 12 7q11 4 23 4q24 0 42 -16q3 -3 5 -6l11 -11q12 -11 27.5 -12t28.5 8q3 2 4 3
q17 15 32 30q16 16 30 32l3 5q9 12 8.5 27t-11.5 26l-3 3l-12 12q-14 14 -17.5 33.5t4.5 37.5l3 6q11 23 20 48q1 4 2 6q5 12 14 22q19 19 46 19h18q17 0 29.5 12t12.5 28h1q2 23 2 45q0 23 -2 47zM774 300q0 -44 -14 -85q-5 -15 -13 -30q-19 -39 -50 -70t-70 -51
q-14 -7 -30 -12q-41 -14 -85 -15h-1q-43 0 -84 14q-16 6 -31 13q-39 19 -70 50t-50 70q-8 15 -13 31q-14 41 -14 84q0 46 14 86q5 16 13 31q19 39 50 70t70 50q16 8 31 13q41 14 84 14h1q44 -1 85 -15q15 -5 30 -12q39 -20 70 -51t50 -70q8 -15 13 -30q14 -41 14 -85v0z" />
    <glyph glyph-name="uniE65D" unicode="&#xe65d;" 
d="M489 161l-175 -87q-15 -7 -24.5 3t-4.5 25l87 176q3 13 10 21l244 243h-381q-24 0 -40.5 -16.5t-16.5 -39.5v-453q0 -23 16.5 -39.5t40.5 -16.5h452q24 0 40.5 16.5t16.5 39.5v382l-244 -244q-7 -8 -21 -10zM737 455l17 17v14q0 23 -16.5 39.5t-40.5 16.5h-15l-15 -15z
M324 127q-4 -7 1.5 -12.5t12.5 -2.5l108 66l-57 57zM411 271q10 -11 71 -71l227 227l-71 70zM823 541l-71 71q-12 11 -28.5 11t-28.5 -11l-69 -70h56l27 27q6 6 14.5 6t13.5 -6l43 -43q6 -6 6 -14t-6 -14l-26 -26v-57l69 69q11 12 11 28.5t-11 28.5z" />
    <glyph glyph-name="uniE669" unicode="&#xe669;" horiz-adv-x="1229" 
d="M1147 -75q0 5 -1 10q-21 161 -138 271q-60 57 -137 87q67 42 106.5 112.5t39.5 153.5q0 128 -88.5 219t-213 91t-212.5 -91t-88 -219q0 -83 39.5 -153.5t105.5 -112.5q-76 -30 -137 -87q-115 -109 -137 -268q-2 -6 -2 -12l1 -4v-1q0 -15 10.5 -26t25.5 -11t25.5 10.5
t11.5 26.5l-1 4v1v5q19 132 115 221.5t225 96.5q10 -1 18.5 -1t18.5 1q130 -7 226 -97t115 -222v-4v-5q0 -16 10.5 -26.5t25.5 -10.5t25.5 10.5t10.5 25.5v5v0zM485 558q0 99 67.5 168.5t163 69.5t163 -69.5t67.5 -168.5q0 -92 -60.5 -159.5t-149.5 -76.5q-10 1 -20 1
t-21 -1q-89 8 -149.5 76t-60.5 160v0zM464 894h-4q-14 1 -28 1q-125 0 -213 -91t-88 -219q0 -83 39.5 -153.5t105.5 -111.5q-76 -30 -136 -87q-116 -109 -138 -268q-2 -6 -2 -12l1 -5q0 -16 10.5 -27t25.5 -11t26 11t11 26l-1 5v5q19 132 115 222t225 97h1h1q2 -1 4 -1
q15 0 25.5 11t10.5 26q0 23 -19 33q-7 4 -14 4h-3h-6h-2q-88 8 -149 76t-61 160q0 98 67.5 167.5t163.5 69.5l33 -2q14 1 24 11.5t10 25.5t-10.5 26t-24.5 11z" />
    <glyph glyph-name="uniE6C2" unicode="&#xe6c2;" 
d="M846 204q-41 151 -173 229q-1 0 -32 16l1 1l2 2l3 3q32 31 43 61q3 8 8 28q8 47 -21 72q-39 33 -90 12q-4 -2 -6 0q-32 30 -76.5 30.5t-75.5 -29.5q-3 -2 -6 -1q-26 12 -54 6t-45.5 -27t-13.5 -51q7 -53 42 -92q1 0 15 -16h-1q-2 -1 -3 -1q-90 -42 -147 -125.5
t-64 -185.5q-4 -60 9 -112q11 -44 46.5 -72.5t80.5 -28.5h217h217q68 0 108 59q17 24 23 64q13 83 -7 158zM605.5 112.5q-5.5 -4.5 -14.5 -4.5h-63v-20q0 -9 -6.5 -17t-17.5 -7q-10 0 -17.5 5t-7.5 19v20h-61q-9 0 -15 5.5t-5 13.5q0 9 6 14.5t14 5.5h61v34h-61
q-9 0 -14.5 6t-5.5 14t6 15t14 7h61v20q-16 18 -29 34q-12 14 -21 26l-14 14q-4 6 -7.5 16t3.5 21q8 10 19.5 5.5t18.5 -11.5q4 -5 13 -15l42 -47q16 16 28 29q11 11 21.5 21t15.5 14q8 8 17.5 8t16.5 -9q11 -15 -9 -34q-6 -5 -16.5 -17.5t-21.5 -24.5q-12 -15 -28 -31v-18
h58q13 0 19 -6.5t6 -14.5q0 -9 -5.5 -15.5t-18.5 -5.5l-58 -1l-1 -33h58q25 0 25 -21q0 -10 -5.5 -14.5z" />
    <glyph glyph-name="uniE6C4" unicode="&#xe6c4;" 
d="M218 -62q-42 0 -71 29l-31 30q-29 30 -29.5 72t28.5 72l295 301q-32 95 2 189t119 147q85 52 171 52q93 0 162 -61q8 -8 7 -20t-11 -18l-158 -98q-9 -6 -11.5 -16.5t2.5 -19.5l160 -264q8 -14 -1.5 -27t-25.5 -9l-1 1q-60 16 -105 16q-64 0 -118 -27l-311 -318
q-30 -31 -73 -31zM702 783q-73 0 -146 -45q-74 -46 -101.5 -129t5.5 -164q5 -14 -6 -25l-305 -312q-16 -16 -15.5 -38.5t16.5 -38.5l30 -30q16 -15 38 -15q23 0 39 16l314 321q2 2 6 4q65 35 143 35q31 0 63 -6l-130 216q-16 26 -9 56t33 46l129 79q-46 30 -104 30zM892 602
q0 -90 -58 -158l26 -42q46 49 66 113t10 131q-2 12 -13.5 17.5t-22.5 -1.5l-144 -88l24 -41zM249 55.5q-12 -7.5 -26 -4t-21 15.5t-4 25.5t15 21t25.5 4t21 -15.5t4.5 -25.5t-15 -21zM564 448q-16 0 -20 16q-2 8 2.5 15t12.5 9l72 19q9 2 16 -2.5t9 -12.5t-2 -15t-12 -10
l-73 -18q-2 -1 -5 -1zM528 509q-16 0 -20 15q-2 8 2.5 15.5t12.5 9.5l72 18q8 2 15.5 -2t9.5 -12.5t-2.5 -15.5t-12.5 -9l-72 -19h-5zM604 391q-16 0 -20 16q-2 8 2.5 15t12.5 10l72 18q9 2 16 -2t9 -12.5t-2 -15.5t-13 -9l-72 -19q-2 -1 -5 -1z" />
    <glyph glyph-name="uniE6CE" unicode="&#xe6ce;" 
d="M849 143l-31 16l26 23q59 50 59 127q0 71 -50 120.5t-120.5 49.5t-120 -49.5t-49.5 -120.5q0 -77 58 -128l26 -22l-31 -16q-59 -30 -95 -85.5t-39 -121.5q4 -18 26 -18l3 -1q17 1 29 22q14 87 63 131.5t129 44.5q82 0 133 -45t65 -130v-1q12 -19 27 -20h6q16 0 20 19
q-3 65 -39 120t-95 85zM733 193q-48 0 -82 34t-34 82t34 82t82 34t82 -34t34 -82t-34 -82t-82 -34zM470 662h-232q-18 0 -25.5 -9.5t-7.5 -19.5q0 -12 8 -20.5t24 -8.5h488q16 0 24.5 10t8.5 21t-8 19q-9 8 -25 8h-255zM305 -12h-135q-34 0 -53 19t-19 53v674
q0 45 13.5 58.5t58.5 13.5h622q41 0 57 -16t16 -56v-67q0 -15 10 -25q8 -7 20.5 -7t19.5 8q9 8 9 24v67q0 74 -28.5 102.5t-103.5 28.5h-622q-17 0 -26 -0.5t-25 -3t-25 -7t-21 -13.5t-18 -22.5t-10.5 -34t-4.5 -47.5v-426v-273q0 -21 6 -38q10 -32 37 -51t62 -19h56h104
q13 0 21 9q6 7 6 19q0 13 -7.5 21.5t-19.5 8.5zM475 451q-9 9 -26 9h-212q-17 0 -24.5 -9.5t-7.5 -20t7.5 -19.5t24.5 -9h213q16 0 24.5 10t8.5 21t-8 18zM428 241h-190q-17 0 -25 -10t-8 -20q0 -11 8 -19.5t25 -8.5h191q17 0 25 9.5t8 20.5q0 12 -8 19q-8 9 -26 9z" />
    <glyph glyph-name="uniE6FA" unicode="&#xe6fa;" 
d="M516 350q43 27 66.5 70t23.5 95q0 84 -60.5 145.5t-142.5 61.5q-83 0 -141.5 -61t-58.5 -146q0 -51 22 -94.5t59 -70.5q-98 -36 -159 -119t-61 -185h680q0 102 -62.5 185t-165.5 119v0zM650 515q0 -44 -17 -86.5t-48 -71.5q95 -46 148.5 -129t53.5 -182h173
q0 83 -50 150.5t-130 95.5q30 22 49 60.5t19 73.5q0 70 -47 118.5t-118 48.5q-25 0 -43 -7l4 -20q3 -15 4.5 -27.5t1.5 -23.5zM650 515z" />
    <glyph glyph-name="uniE7B7" unicode="&#xe7b7;" 
d="M797 258h7q4 0 6 -1q-78 79 -183 107q44 26 71 71.5t27 99.5q0 82 -58 139.5t-140 57.5t-140 -57.5t-58 -139.5q0 -54 27 -99.5t71 -71.5q-129 -34 -212 -140t-83 -243q0 -18 2 -39h440q-14 39 -14 79q0 98 69.5 167.5t167.5 69.5zM888 95h-87v87q0 15 -10.5 25t-25 10
t-25 -10t-10.5 -25v-87h-87q-15 0 -25.5 -10.5t-10.5 -25.5t10.5 -25t25.5 -10h87v-87q0 -15 10.5 -25.5t25 -10.5t25 10.5t10.5 25.5v87h87q15 0 25 10t10 25t-10 25.5t-25 10.5z" />
  </font>
</defs>
</svg>
